<mxfile host="app.diagrams.net" modified="2020-09-26T19:09:24.431Z" agent="5.0 (Windows NT 10.0; WOW64) AppleWebKit/537.36 (KHTML, like Gecko) Chrome/69.0.3947.100 Safari/537.36" etag="woR5T1QOEIN4x-y4l4y1" version="13.7.3" type="github">
  <diagram id="UebUpHDUMXlgZD6PfALJ" name="Page-1">
    <mxGraphModel dx="1331" dy="765" grid="0" gridSize="10" guides="1" tooltips="1" connect="1" arrows="1" fold="1" page="1" pageScale="1" pageWidth="827" pageHeight="1169" background="#FFFFFF" math="0" shadow="0">
      <root>
        <mxCell id="0" />
        <mxCell id="1" parent="0" />
        <mxCell id="bzAe-yrNS89ouH65JRRB-4" value="&lt;font color=&quot;#000000&quot;&gt;&lt;span style=&quot;font-weight: 700 ; font-size: 24px&quot;&gt;&amp;nbsp; &amp;nbsp; &amp;nbsp; &amp;nbsp; &amp;nbsp; &amp;nbsp; &amp;nbsp; &amp;nbsp; &amp;nbsp;综合目录&lt;/span&gt;&lt;br style=&quot;font-weight: 700 ; font-size: 24px&quot;&gt;&lt;span style=&quot;font-weight: 700 ; font-size: 24px&quot;&gt;&amp;nbsp; &amp;nbsp; &amp;nbsp; &amp;nbsp; &amp;nbsp; &amp;nbsp; &amp;nbsp; &amp;nbsp; &amp;nbsp; &amp;nbsp;2021&lt;/span&gt;&lt;/font&gt;" style="rounded=0;whiteSpace=wrap;html=1;fontSize=24;fillColor=#1ba1e2;glass=1;align=left;labelBackgroundColor=none;gradientDirection=south;fontColor=#ffffff;gradientColor=#ffffff;strokeColor=none;" parent="1" vertex="1">
          <mxGeometry width="827" height="1168" as="geometry" />
        </mxCell>
        <mxCell id="bzAe-yrNS89ouH65JRRB-1" value="中极至善半导体" style="text;html=1;strokeColor=none;fillColor=none;align=center;verticalAlign=middle;whiteSpace=wrap;rounded=0;fontStyle=1;fontSize=38;" parent="1" vertex="1">
          <mxGeometry x="426" y="478" width="334" height="20" as="geometry" />
        </mxCell>
        <mxCell id="bzAe-yrNS89ouH65JRRB-5" value="&lt;font color=&quot;#000000&quot;&gt;GIGE CAM SYS&lt;/font&gt;" style="rounded=0;whiteSpace=wrap;html=1;glass=1;labelBackgroundColor=none;fontSize=24;align=left;fillColor=#1ba1e2;fontColor=#ffffff;strokeColor=#3333FF;strokeWidth=1;gradientColor=#FF33FF;" parent="1" vertex="1">
          <mxGeometry x="21" y="1192" width="795" height="26" as="geometry" />
        </mxCell>
      </root>
    </mxGraphModel>
  </diagram>
</mxfile>
